<svg xmlns="http://www.w3.org/2000/svg" version="1.1" xmlns:xlink="http://www.w3.org/1999/xlink" xmlns:svgjs="http://svgjs.dev/svgjs" width="1000" height="623" viewBox="0 0 1000 623"><g transform="matrix(1,0,0,1,-0.6060605651026094,0.2522267206477409)"><svg viewBox="0 0 396 247" data-background-color="#dedede" preserveAspectRatio="xMidYMid meet" height="623" width="1000" xmlns="http://www.w3.org/2000/svg" xmlns:xlink="http://www.w3.org/1999/xlink"><g id="tight-bounds" transform="matrix(1,0,0,1,0.24000001621948286,-0.09999999999999432)"><svg viewBox="0 0 395.52 247.2" height="247.2" width="395.52"><g><svg></svg></g><g><svg viewBox="0 0 395.52 247.2" height="247.2" width="395.52"><g><g><path xmlns="http://www.w3.org/2000/svg" d="M150.19 208.168c0.813 0 1.22 0.813 1.22 2.44 0 1.626-1.897 4.337-5.692 8.131l-4.066 6.099c-7.318 11.113-12.658 17.618-16.019 19.516-3.415 1.897-6.126 2.846-8.132 2.846-2.06 0-5.177-0.461-9.351-1.382-4.228-0.976-6.397-2.006-6.505-3.09-0.163-1.084-0.244-3.388-0.244-6.912 0-3.524 2.575-12.008 7.725-25.452 1.861-4.839 3.828-9.653 5.901-14.442l14.589 0c-2.274 5.101-4.496 10.267-6.667 15.499-2.168 5.692-3.253 9.568-3.252 11.628 0 2.006 0 3.28 0 3.822 1.084 2.711 3.334 3.524 6.749 2.44 3.361-1.084 6.532-3.524 9.514-7.319 7.047-9.216 11.791-13.824 14.23-13.824zM219.309 34.966c4.337 0 9.622 1.681 15.856 5.041 5.456 2.989 8.213 6.746 8.272 11.271l-4.66 0c-0.258-0.033-0.514-0.049-0.766-0.049-0.435 0-0.875 0.016-1.318 0.049l-47.78 0c11.05-10.875 21.182-16.312 30.396-16.312zM305.097 32.933c2.168-3.524 5.421-7.589 9.758-12.197-11.926-0.271-29.816-1.355-53.669-3.253-29.545-2.439-49.738-3.659-60.58-3.659-10.842 0-25.886 0.949-45.13 2.846-25.75 3.524-47.895 10.625-66.435 21.304-7.003 4.042-12.936 8.477-17.802 13.304l-21.032 0c6.056-13.299 17.021-24.022 32.898-32.169 24.666-12.739 55.024-19.109 91.073-19.109 21.955 0 50.768 2.439 86.439 7.318 35.616 4.879 55.457 7.318 59.523 7.319 7.318-8.132 12.875-12.333 16.67-12.604 1.355-0.271 3.253-0.407 5.692-0.407 2.439 0 4.608 0.867 6.505 2.602 1.897 1.789 2.846 3.632 2.846 5.53 0 1.897-0.813 3.795-2.439 5.692-1.626 1.897-4.933 4.662-9.921 8.294-5.042 3.686-9.053 7.02-12.034 10.002-6.183 6.183-11.01 12.027-14.481 17.532l-14.046 0c1.168-6.509 3.223-12.624 6.165-18.345z" fill="#01ff2c" fill-rule="nonzero" stroke="none" stroke-width="1" stroke-linecap="butt" stroke-linejoin="miter" stroke-miterlimit="10" stroke-dasharray="" stroke-dashoffset="0" font-family="none" font-weight="none" font-size="none" text-anchor="none" style="mix-blend-mode: normal" data-fill-palette-color="tertiary"></path></g></g><g transform="matrix(1,0,0,1,2.842170943040401e-14,64.10156660277084)"><svg viewBox="0 0 395.5199999999999 118.9968667944583" height="118.9968667944583" width="395.5199999999999"><g><svg viewBox="0 0 395.5199999999999 118.9968667944583" height="118.9968667944583" width="395.5199999999999"><g><svg viewBox="0 0 661.395634848589 198.9886940193005" height="118.9968667944583" width="395.5199999999999"><g><svg viewBox="0 0 395.52 198.9886940193005" height="198.9886940193005" width="395.52"><g id="textblocktransform"><svg viewBox="0 0 395.52 198.9886940193005" height="198.9886940193005" width="395.52" id="textblock"><g><svg viewBox="0 0 395.52 146.95509202453988" height="146.95509202453988" width="395.52"><g transform="matrix(1,0,0,1,0,0)"><svg width="395.52" viewBox="0.45000001788139343 -29.399999618530273 130.3800048828125 48.44999694824219" height="146.95509202453988" data-palette-color="#374151"><path d="M13.55-2.9L13.55-2.9Q13.7-2.9 13.7-2.6 13.7-2.3 13-1.6L13-1.6 12.5-0.85Q11.15 1.2 10.53 1.55 9.9 1.9 9.53 1.9 9.15 1.9 8.38 1.73 7.6 1.55 7.58 1.35 7.55 1.15 7.55 0.5 7.55-0.15 8.5-2.63 9.45-5.1 10.7-7.5L10.7-7.5Q13-12 15.3-16.2L15.3-16.2Q15.75-17.05 15.75-17.53 15.75-18 15.6-18.25L15.6-18.25Q15.9-19.7 18.07-21.95 20.25-24.2 22.05-24.2L22.05-24.2Q22.85-24.2 24-23.58 25.15-22.95 25-21.95L25-21.95Q24.65-22.2 24.35-22.2L24.35-22.2Q22.25-22.2 19.1-18.1L19.1-18.1Q13.85-11.3 10.2-2.5L10.2-2.5Q9.8-1.45 9.8-1.07 9.8-0.7 9.8-0.6L9.8-0.6Q10-0.1 10.63-0.3 11.25-0.5 11.8-1.2L11.8-1.2Q13.1-2.9 13.55-2.9ZM32.6-24.45L32.6-24.45Q33-25.1 33.8-25.95L33.8-25.95Q31.6-26 27.2-26.35L27.2-26.35Q21.75-26.8 19.75-26.8 17.75-26.8 14.2-26.45L14.2-26.45Q9.45-25.8 6.03-23.83 2.6-21.85 1.95-18.85L1.95-18.85Q1.85-18.55 1.85-18.13 1.85-17.7 2.13-17.1 2.4-16.5 2.8-16.15 3.2-15.8 4.03-15.3 4.85-14.8 5.13-14.58 5.4-14.35 5.23-14.2 5.05-14.05 4.88-14.05 4.7-14.05 4.5-14.1L4.5-14.1Q2.8-14.6 1.63-15.98 0.45-17.35 0.45-18.28 0.45-19.2 0.7-19.85L0.7-19.85Q0.7-20.4 0.75-20.65L0.75-20.65Q1.5-24.2 5.3-26.15L5.3-26.15Q9.85-28.5 16.5-28.5L16.5-28.5Q20.55-28.5 27.13-27.6 33.7-26.7 34.45-26.7L34.45-26.7Q35.8-28.2 36.5-28.25L36.5-28.25Q36.75-28.3 37.2-28.3 37.65-28.3 38-27.98 38.35-27.65 38.35-27.3 38.35-26.95 38.05-26.6 37.75-26.25 36.83-25.58 35.9-24.9 35.35-24.35L35.35-24.35Q32.75-21.75 32.75-19.8L32.75-19.8Q32.75-18.95 33.1-18.43 33.45-17.9 33.05-17.68 32.65-17.45 32.2-18L32.2-18Q31.7-18.4 31.7-20.55 31.7-22.7 32.6-24.45ZM25.4 1.25L25.4 1.25Q22.85 1.25 22.85-1.83 22.85-4.9 27.25-9.4L27.25-9.4Q27.6-9.75 27.75-9.95L27.75-9.95 28.1-10.45Q28.8-11.4 28.75-11.65L28.75-11.65 28.6-12.1Q28.4-12.7 26.95-12.98 25.5-13.25 24.6-13.25L24.6-13.25Q20.1-6.9 19.4-6 18.7-5.1 18.45-5.25 18.2-5.4 18.2-5.6 18.2-5.8 18.5-6.2L18.5-6.2Q21.2-9.5 23.15-13.25L23.15-13.25Q22.55-13.35 22.25-13.68 21.95-14 22.2-14.78 22.45-15.55 23.72-16.85 25-18.15 25.95-18.6 26.9-19.05 27.15-19.15 27.4-19.25 27.7-19.25L27.7-19.25Q28.3-19.25 27.3-17.45L27.3-17.45 25.35-14.35Q27.6-14.2 29.2-14.2L29.2-14.2 30.95-14.25Q31.8-14.25 32.2-14.03 32.6-13.8 32.4-13.25L32.4-13.25Q32.05-12.3 30.65-10.7L30.65-10.7Q27.65-7.2 26.15-3.25L26.15-3.25Q25.8-2.3 25.8-1.6L25.8-1.6Q25.8-0.15 26.85-0.15L26.85-0.15Q27.2-0.15 28.17-0.7 29.15-1.25 31.45-3.33 33.75-5.4 35.15-7.4L35.15-7.4Q35.35-7.65 35.62-7.53 35.9-7.4 35.9-7.28 35.9-7.15 35.8-7L35.8-7Q35.05-5.65 33.1-3.55 31.15-1.45 29.3-0.15L29.3-0.15Q27.5 1.25 25.4 1.25ZM39.34-13.85L39.34-13.85Q40.59-13.85 40.84-13.05L40.84-13.05Q40.95-12.6 40.72-12.18 40.5-11.75 40.4-11.5 40.3-11.25 40.25-11.1L40.25-11.1Q40-10.6 39.75-10.15L39.75-10.15Q36.9-4.45 36.75-2.9L36.75-2.9Q36.7-2.45 36.7-1.75 36.7-1.05 37.09-0.6L37.09-0.6Q37.8 0.2 39.09-0.5 40.4-1.2 42.72-3.3 45.05-5.4 46.5-7.4L46.5-7.4Q46.7-7.65 46.95-7.53 47.2-7.4 47.2-7.28 47.2-7.15 47.09-7L47.09-7Q46.34-5.65 44.4-3.55L44.4-3.55Q41.2-0.1 39.05 0.7L39.05 0.7Q37.8 1.15 36.95 1.15L36.95 1.15Q34.95 1.15 34.3-0.75L34.3-0.75Q34.2-1.1 34.2-1.6L34.2-1.6Q34.2-3.35 35.8-6.9L35.8-6.9Q35.55-6.35 33.84-4.4L33.84-4.4Q33.4-3.9 33.15-4.4L33.15-4.4Q33.09-4.5 33.09-4.67 33.09-4.85 33.3-5.1L33.3-5.1Q35.75-8.15 37.15-10.25L37.15-10.25Q37.05-10.5 37.25-10.9L37.25-10.9Q38.25-13.7 39-13.85L39-13.85Q39.15-13.85 39.34-13.85ZM43.3-20.5L43.3-20.5 42.9-18.9Q42.9-18.45 42.25-17.45 41.59-16.45 41.25-16.45L41.25-16.45Q39.09-16.45 39.09-17.5L39.09-17.5Q39.09-17.7 41.25-19.35L41.25-19.35 42.09-20Q42.9-20.7 43.09-20.7 43.3-20.7 43.3-20.5ZM61.49-10.4L61.49-10.4Q61.49-8.2 59.69-5.93 57.89-3.65 55.44-1.95L55.44-1.95Q53.19-0.5 50.87 0.3 48.54 1.1 47.37 1.1 46.19 1.1 45.44 0.85L45.44 0.85Q44.34 3.4 42.39 9.4L42.39 9.4Q42.19 10.05 42.17 11.03 42.14 12 41.57 13.68 40.99 15.35 40.44 16.35L40.44 16.35Q40.19 16.95 38.99 17.32 37.79 17.7 37.29 17.7 36.79 17.7 36.79 17.2L36.79 17.2Q36.79 17 36.94 16.65L36.94 16.65Q39.24 11.95 42.74 2.83 46.24-6.3 46.59-7.3 46.94-8.3 47.59-10.2L47.59-10.2Q48.69-13.4 48.79-15L48.79-15Q48.79-15.6 50.39-15.6 51.99-15.6 51.99-14.45L51.99-14.45Q51.99-13.6 51.02-12.08 50.04-10.55 48.14-6L48.14-6Q51.04-10.4 52.84-11.75L52.84-11.75Q55.24-13.7 57.49-13.7L57.49-13.7Q58.39-13.7 59.29-13.4L59.29-13.4Q61.24-12.7 61.44-11.15L61.44-11.15Q61.49-10.75 61.49-10.4ZM59.04-11.1L59.04-11.1Q59.04-12.85 57.69-12.85L57.69-12.85Q56.89-12.85 55.09-11.9 53.29-10.95 51.49-9.05 49.69-7.15 48.72-5.48 47.74-3.8 46.89-2.02 46.04-0.25 45.89 0.05L45.89 0.05Q48.94 0.05 52.59-2.6 56.24-5.25 58.04-8.35L58.04-8.35Q59.04-9.9 59.04-11.1ZM79.99-10.4L79.99-10.4Q79.99-8.2 78.19-5.93 76.39-3.65 73.94-1.95L73.94-1.95Q71.69-0.5 69.37 0.3 67.04 1.1 65.87 1.1 64.69 1.1 63.94 0.85L63.94 0.85Q62.84 3.4 60.89 9.4L60.89 9.4Q60.69 10.05 60.67 11.03 60.64 12 60.07 13.68 59.49 15.35 58.94 16.35L58.94 16.35Q58.69 16.95 57.49 17.32 56.29 17.7 55.79 17.7 55.29 17.7 55.29 17.2L55.29 17.2Q55.29 17 55.44 16.65L55.44 16.65Q57.74 11.95 61.24 2.83 64.74-6.3 65.09-7.3 65.44-8.3 66.09-10.2L66.09-10.2Q67.19-13.4 67.29-15L67.29-15Q67.29-15.6 68.89-15.6 70.49-15.6 70.49-14.45L70.49-14.45Q70.49-13.6 69.52-12.08 68.54-10.55 66.64-6L66.64-6Q69.54-10.4 71.34-11.75L71.34-11.75Q73.74-13.7 75.99-13.7L75.99-13.7Q76.89-13.7 77.79-13.4L77.79-13.4Q79.74-12.7 79.94-11.15L79.94-11.15Q79.99-10.75 79.99-10.4ZM77.54-11.1L77.54-11.1Q77.54-12.85 76.19-12.85L76.19-12.85Q75.39-12.85 73.59-11.9 71.79-10.95 69.99-9.05 68.19-7.15 67.22-5.48 66.24-3.8 65.39-2.02 64.54-0.25 64.39 0.05L64.39 0.05Q67.44 0.05 71.09-2.6 74.74-5.25 76.54-8.35L76.54-8.35Q77.54-9.9 77.54-11.1ZM87.64-13.85L87.64-13.85Q88.89-13.85 89.14-13.05L89.14-13.05Q89.24-12.6 89.01-12.18 88.79-11.75 88.69-11.5 88.59-11.25 88.54-11.1L88.54-11.1Q88.29-10.6 88.04-10.15L88.04-10.15Q85.19-4.45 85.04-2.9L85.04-2.9Q84.99-2.45 84.99-1.75 84.99-1.05 85.39-0.6L85.39-0.6Q86.09 0.2 87.39-0.5 88.69-1.2 91.01-3.3 93.34-5.4 94.79-7.4L94.79-7.4Q94.99-7.65 95.24-7.53 95.49-7.4 95.49-7.28 95.49-7.15 95.39-7L95.39-7Q94.64-5.65 92.69-3.55L92.69-3.55Q89.49-0.1 87.34 0.7L87.34 0.7Q86.09 1.15 85.24 1.15L85.24 1.15Q83.24 1.15 82.59-0.75L82.59-0.75Q82.49-1.1 82.49-1.6L82.49-1.6Q82.49-3.35 84.09-6.9L84.09-6.9Q83.84-6.35 82.14-4.4L82.14-4.4Q81.69-3.9 81.44-4.4L81.44-4.4Q81.39-4.5 81.39-4.67 81.39-4.85 81.59-5.1L81.59-5.1Q84.04-8.15 85.44-10.25L85.44-10.25Q85.34-10.5 85.54-10.9L85.54-10.9Q86.54-13.7 87.29-13.85L87.29-13.85Q87.44-13.85 87.64-13.85ZM91.59-20.5L91.59-20.5 91.19-18.9Q91.19-18.45 90.54-17.45 89.89-16.45 89.54-16.45L89.54-16.45Q87.39-16.45 87.39-17.5L87.39-17.5Q87.39-17.7 89.54-19.35L89.54-19.35 90.39-20Q91.19-20.7 91.39-20.7 91.59-20.7 91.59-20.5ZM91.76 16.23Q91.64 16.45 91.51 16.55 91.39 16.65 90.48 17.15 89.59 17.65 88.86 17.65 88.14 17.65 88.14 17.3L88.14 17.3Q88.14 17.15 88.23 16.9L88.23 16.9Q89.14 15.2 97.48-6.15L97.48-6.15Q95.94-5.95 95.19-5.95 94.44-5.95 94.01-6.28 93.59-6.6 93.59-7.13 93.59-7.65 94.71-8.08 95.84-8.5 96.44-8.5 97.04-8.5 97.44-8.1 97.84-7.7 97.98-7.7L97.98-7.7 98.14-7.7 99.59-11.4Q100.48-13.9 102.34-17.93 104.19-21.95 105.69-24.35L105.69-24.35Q109.04-29.4 112.39-29.4L112.39-29.4 113.59-29.25 114.59-28.9Q116.04-28.05 116.04-26.58 116.04-25.1 115.24-23.4L115.24-23.4Q113.89-20.5 109.74-15.85 105.59-11.2 101.74-8.1L101.74-8.1Q105.84-8.45 107.01-8.45 108.19-8.45 108.24-8.15L108.24-8.15Q108.24-7.95 107.29-7.68 106.34-7.4 99.59-6.4L99.59-6.4Q93.64 8.7 93.54 10.9L93.54 10.9Q93.48 12 93.31 12.48 93.14 12.95 92.89 13.58 92.64 14.2 92.51 14.53 92.39 14.85 92.23 15.25 92.09 15.65 91.98 15.83 91.89 16 91.76 16.23ZM113.84-24.1L113.84-24.1Q114.69-25.55 114.69-26.85 114.69-28.15 113.74-28.15L113.74-28.15Q111.84-28.15 108.34-23.25L108.34-23.25Q106.29-20.35 104.69-17.5L104.69-17.5Q101.48-11.5 100.59-8.75L100.59-8.75 100.19-7.95Q103.69-10.55 107.64-15.35 111.59-20.15 113.84-24.1ZM107.08 19.05L107.08 19.05Q106.68 19.05 106.08 18.9L106.08 18.9Q103.53 18.25 103.53 16.23 103.53 14.2 106.16 11.15 108.78 8.1 117.23 2.5L117.23 2.5Q121.93-7.1 123.18-10.95L123.18-10.95Q122.58-10.25 120.83-7.93 119.08-5.6 117.73-3.98 116.38-2.35 114.48-0.9 112.58 0.55 110.98 0.55 109.38 0.55 108.51-0.18 107.63-0.9 107.53-1.7 107.43-2.5 107.43-3.05L107.43-3.05Q107.43-4.9 108.43-6.75L108.43-6.75Q109.93-9.8 112.48-12L112.48-12Q113.43-12.9 114.16-12.9 114.88-12.9 115.48-12.45L115.48-12.45Q116.13-11.75 115.88-11.25L115.88-11.25Q113.98-10.15 111.53-7L111.53-7Q110.23-5.3 109.73-2.7L109.73-2.7Q109.68-2.35 109.68-1.83 109.68-1.3 110.11-0.98 110.53-0.65 110.98-0.65L110.98-0.65Q112.53-0.65 114.23-2.3 115.93-3.95 117.48-5.78 119.03-7.6 121.01-10.15 122.98-12.7 123.61-13.5 124.23-14.3 124.88-14.3L124.88-14.3Q125.68-14.3 126.53-13.85 127.38-13.4 127.26-13.15 127.13-12.9 124.71-7.48 122.28-2.05 121.18 0.3L121.18 0.3Q122.38-0.35 125.26-2.78 128.13-5.2 130.13-7.7L130.13-7.7Q130.63-8.3 130.78-7.8L130.78-7.8Q130.83-7.7 130.83-7.48 130.83-7.25 130.53-6.85L130.53-6.85Q128.98-4.8 125.58-1.7 122.18 1.4 120.18 2.5L120.18 2.5Q115.93 11.25 114.48 13.5L114.48 13.5Q110.73 19.05 107.08 19.05ZM116.28 4.4L116.28 4.4Q110.28 8.9 107.71 11.5 105.13 14.1 105.13 15.98 105.13 17.85 106.43 17.85L106.43 17.85Q107.43 17.85 108.73 16.82 110.03 15.8 111.23 14.1 112.43 12.4 113.06 11.18 113.68 9.95 114.78 7.58 115.88 5.2 116.28 4.4Z" opacity="1" transform="matrix(1,0,0,1,0,0)" fill="#374151" class="undefined-text-0" data-fill-palette-color="primary" id="text-0"></path></svg></g></svg></g><g transform="matrix(1,0,0,1,0,168.39936687312883)"><svg viewBox="0 0 395.52 30.58932714617169" height="30.58932714617169" width="395.52"><g transform="matrix(1,0,0,1,0,0)"><svg width="395.52" viewBox="1.9500000476837158 -37.5 646.4299926757812 50" height="30.58932714617169" data-palette-color="#374151"><path d="M19.6 0.7L19.6 0.7Q14.5 0.7 10.51-1.54 6.53-3.78 4.24-7.86 1.95-11.95 1.95-17.5L1.95-17.5Q1.95-23.05 4.26-27.14 6.58-31.23 10.61-33.46 14.65-35.7 19.8-35.7L19.8-35.7Q22.48-35.7 24.9-35.13 27.33-34.55 29.15-33.65L29.15-33.65 28.65-29.25Q26.78-30.15 24.53-30.78 22.28-31.4 19.75-31.4L19.75-31.4Q15.63-31.4 12.83-29.54 10.03-27.68 8.59-24.53 7.15-21.38 7.15-17.5L7.15-17.5Q7.15-13.63 8.56-10.48 9.98-7.33 12.76-5.46 15.55-3.6 19.65-3.6L19.65-3.6Q22.25-3.6 24.46-4.16 26.68-4.73 28.65-5.7L28.65-5.7 29.15-1.3Q27.28-0.45 24.93 0.13 22.58 0.7 19.6 0.7ZM43.85 0.5L43.85 0.5Q40 0.5 37.28-1.21 34.57-2.93 33.13-5.81 31.7-8.7 31.7-12.25L31.7-12.25Q31.7-15.8 33.13-18.69 34.57-21.58 37.28-23.29 40-25 43.85-25L43.85-25Q47.67-25 50.4-23.29 53.12-21.58 54.56-18.69 56-15.8 56-12.25L56-12.25Q56-8.7 54.56-5.81 53.12-2.93 50.4-1.21 47.67 0.5 43.85 0.5ZM43.85-3.5L43.85-3.5Q47.5-3.5 49.45-5.81 51.4-8.13 51.4-12.25L51.4-12.25Q51.4-16.38 49.45-18.69 47.5-21 43.85-21L43.85-21Q40.22-21 38.26-18.69 36.3-16.38 36.3-12.25L36.3-12.25Q36.3-8.13 38.26-5.81 40.22-3.5 43.85-3.5ZM65.14 0L60.64 0 60.64-24.5 64.14-24.5 65.05-19.8 63.34-20.6Q65.64-23.08 67.82-24.04 70-25 72.39-25L72.39-25Q74.19-25 75.86-24.41 77.52-23.83 78.86-22.36 80.19-20.9 81-18.3L81-18.3 79.75-18.85Q80.84-21.7 83.12-23.35 85.39-25 89.25-25L89.25-25Q92.32-25 94.42-23.86 96.52-22.73 97.58-20.39 98.65-18.05 98.65-14.45L98.65-14.45 98.65 0 94.15 0 94.15-14.4Q94.15-17.85 92.8-19.43 91.44-21 88.39-21L88.39-21Q86.25-21 84.94-20.34 83.64-19.68 82.98-18.63 82.32-17.57 82.11-16.4 81.89-15.23 81.89-14.2L81.89-14.2 81.89 0 77.39 0 77.39-13.5Q77.39-16.5 76.67-18.13 75.94-19.75 74.64-20.38 73.34-21 71.64-21L71.64-21Q69.17-21 67.22-19.91 65.27-18.82 64.59-16.45L64.59-16.45 65.14-18.9 65.14 0ZM108.99 0L104.49 0 104.49-24.5 107.99-24.5 108.89-19.8 107.19-20.6Q109.49-23.08 111.67-24.04 113.84-25 116.24-25L116.24-25Q118.04-25 119.7-24.41 121.37-23.83 122.7-22.36 124.04-20.9 124.84-18.3L124.84-18.3 123.59-18.85Q124.69-21.7 126.97-23.35 129.24-25 133.09-25L133.09-25Q136.17-25 138.27-23.86 140.37-22.73 141.43-20.39 142.49-18.05 142.49-14.45L142.49-14.45 142.49 0 137.99 0 137.99-14.4Q137.99-17.85 136.64-19.43 135.29-21 132.24-21L132.24-21Q130.09-21 128.79-20.34 127.49-19.68 126.83-18.63 126.17-17.57 125.95-16.4 125.74-15.23 125.74-14.2L125.74-14.2 125.74 0 121.24 0 121.24-13.5Q121.24-16.5 120.52-18.13 119.79-19.75 118.49-20.38 117.19-21 115.49-21L115.49-21Q113.02-21 111.07-19.91 109.12-18.82 108.44-16.45L108.44-16.45 108.99-18.9 108.99 0ZM157.14 0.5L157.14 0.5Q154.26 0.5 152.24-0.66 150.22-1.83 149.15-4.2 148.09-6.58 148.09-10.25L148.09-10.25 148.09-24.5 152.59-24.5 152.59-11.5Q152.59-7.6 153.93-5.55 155.26-3.5 158.29-3.5L158.29-3.5Q160.36-3.5 162.14-4.5 163.91-5.5 164.59-7.7L164.59-7.7 163.94-5.25 163.94-24.5 168.44-24.5 168.44 0 164.44 0 163.54-4.8 164.74-4Q163.51-1.73 161.75-0.61 159.99 0.5 157.14 0.5ZM187.04 0.5L182.99 0.5Q180.66 0.5 179.26-0.35 177.86-1.2 177.23-2.54 176.59-3.88 176.59-5.35L176.59-5.35 176.59-21 172.39-21 172.79-24.5 176.59-24.5 176.59-30.55 181.09-31 181.09-24.5 187.54-24.5 187.54-21 181.09-21 181.09-8.1Q181.09-5.75 181.36-4.7 181.64-3.65 182.73-3.38 183.81-3.1 186.24-3.1L186.24-3.1 187.39-3.1 187.04 0.5ZM202.94 0.5L202.94 0.5Q198.61 0.5 195.66-1.28 192.71-3.05 191.2-5.99 189.69-8.93 189.69-12.45L189.69-12.45Q189.69-15.88 191.1-18.73 192.51-21.58 195.2-23.29 197.89-25 201.69-25L201.69-25Q204.74-25 207.12-23.79 209.51-22.58 210.87-20.26 212.24-17.95 212.24-14.65L212.24-14.65Q212.24-14.13 212.2-13.51 212.16-12.9 212.04-12.25L212.04-12.25 194.29-12.25Q194.61-8.85 195.91-6.95 197.21-5.05 199.19-4.28 201.16-3.5 203.49-3.5L203.49-3.5Q205.19-3.5 207.04-3.85 208.89-4.2 210.54-4.95L210.54-4.95 211.14-1.4Q209.71-0.78 207.66-0.14 205.61 0.5 202.94 0.5ZM194.69-15.35L194.69-15.35 207.59-15.35Q207.59-17.07 206.94-18.35 206.29-19.63 204.96-20.31 203.64-21 201.59-21L201.59-21Q198.59-21 196.97-19.51 195.36-18.03 194.69-15.35ZM240.13 0L235.08 0 225.18-35 230.18-35 237.58-6.15 246.13-34.3 251.13-34.3 259.68-6.15 267.08-35 272.08-35 262.18 0 257.13 0 248.63-28.15 240.13 0ZM279.58 0L275.08 0 275.08-24.5 279.58-24.5 279.58 0ZM279.58-30L275.08-30 275.08-35 279.58-35 279.58-30ZM298.18 0.5L294.13 0.5Q291.8 0.5 290.4-0.35 289-1.2 288.36-2.54 287.73-3.88 287.73-5.35L287.73-5.35 287.73-21 283.53-21 283.93-24.5 287.73-24.5 287.73-30.55 292.23-31 292.23-24.5 298.68-24.5 298.68-21 292.23-21 292.23-8.1Q292.23-5.75 292.5-4.7 292.78-3.65 293.86-3.38 294.95-3.1 297.38-3.1L297.38-3.1 298.53-3.1 298.18 0.5ZM307.02 0L302.47 0 302.47-37.5 307.02-37.5 307.02-20.25 305.42-20.35Q307.15-22.53 309.14-23.76 311.12-25 314.22-25L314.22-25Q317.4-25 319.52-23.58 321.65-22.15 322.71-19.6 323.77-17.05 323.77-13.65L323.77-13.65 323.77 0 319.27 0 319.27-13.1Q319.27-17.15 317.79-19.07 316.3-21 313.22-21L313.22-21Q310.9-21 309.11-19.75 307.32-18.5 306.27-16.4L306.27-16.4 307.02-19.15 307.02 0ZM354.37 0L349.62 0 349.62-15.15 337.27-35 342.67-35 353.07-18 350.87-18 361.27-35 366.67-35 354.37-15.15 354.37 0ZM375.67 0.5L375.67 0.5Q371.82 0.5 369.1-1.21 366.39-2.93 364.95-5.81 363.52-8.7 363.52-12.25L363.52-12.25Q363.52-15.8 364.95-18.69 366.39-21.58 369.1-23.29 371.82-25 375.67-25L375.67-25Q379.49-25 382.22-23.29 384.94-21.58 386.38-18.69 387.82-15.8 387.82-12.25L387.82-12.25Q387.82-8.7 386.38-5.81 384.94-2.93 382.22-1.21 379.49 0.5 375.67 0.5ZM375.67-3.5L375.67-3.5Q379.32-3.5 381.27-5.81 383.22-8.13 383.22-12.25L383.22-12.25Q383.22-16.38 381.27-18.69 379.32-21 375.67-21L375.67-21Q372.04-21 370.08-18.69 368.12-16.38 368.12-12.25L368.12-12.25Q368.12-8.13 370.08-5.81 372.04-3.5 375.67-3.5ZM401.26 0.5L401.26 0.5Q398.39 0.5 396.36-0.66 394.34-1.83 393.28-4.2 392.21-6.58 392.21-10.25L392.21-10.25 392.21-24.5 396.71-24.5 396.71-11.5Q396.71-7.6 398.05-5.55 399.39-3.5 402.41-3.5L402.41-3.5Q404.49-3.5 406.26-4.5 408.04-5.5 408.71-7.7L408.71-7.7 408.06-5.25 408.06-24.5 412.56-24.5 412.56 0 408.56 0 407.66-4.8 408.86-4Q407.64-1.73 405.88-0.61 404.11 0.5 401.26 0.5ZM423.46 0L418.66 0 418.66-24.5 422.36-24.5 422.91-20.45Q424.79-22.78 426.5-23.89 428.21-25 430.16-25L430.16-25Q430.79-25 431.31-24.85L431.31-24.85 430.86-19.9Q430.54-19.98 430.17-20.01 429.81-20.05 429.36-20.05L429.36-20.05Q427.41-20.05 425.77-19.19 424.14-18.32 423.46-17.3L423.46-17.3 423.46 0ZM462.26 0.7L462.26 0.7Q457.16 0.7 453.17-1.54 449.18-3.78 446.89-7.86 444.61-11.95 444.61-17.5L444.61-17.5Q444.61-23.05 446.92-27.14 449.23-31.23 453.27-33.46 457.31-35.7 462.46-35.7L462.46-35.7Q465.13-35.7 467.56-35.13 469.98-34.55 471.81-33.65L471.81-33.65 471.31-29.25Q469.43-30.15 467.18-30.78 464.93-31.4 462.41-31.4L462.41-31.4Q458.28-31.4 455.48-29.54 452.68-27.68 451.24-24.53 449.81-21.38 449.81-17.5L449.81-17.5Q449.81-13.63 451.22-10.48 452.63-7.33 455.42-5.46 458.21-3.6 462.31-3.6L462.31-3.6Q464.91-3.6 467.12-4.16 469.33-4.73 471.31-5.7L471.31-5.7 471.81-1.3Q469.93-0.45 467.58 0.13 465.23 0.7 462.26 0.7ZM486.5 0.5L486.5 0.5Q482.65 0.5 479.94-1.21 477.23-2.93 475.79-5.81 474.35-8.7 474.35-12.25L474.35-12.25Q474.35-15.8 475.79-18.69 477.23-21.58 479.94-23.29 482.65-25 486.5-25L486.5-25Q490.33-25 493.05-23.29 495.78-21.58 497.22-18.69 498.65-15.8 498.65-12.25L498.65-12.25Q498.65-8.7 497.22-5.81 495.78-2.93 493.05-1.21 490.33 0.5 486.5 0.5ZM486.5-3.5L486.5-3.5Q490.15-3.5 492.1-5.81 494.05-8.13 494.05-12.25L494.05-12.25Q494.05-16.38 492.1-18.69 490.15-21 486.5-21L486.5-21Q482.88-21 480.92-18.69 478.95-16.38 478.95-12.25L478.95-12.25Q478.95-8.13 480.92-5.81 482.88-3.5 486.5-3.5ZM511.05 0.5L509.6 0.5Q507.23 0.5 505.84-0.36 504.45-1.23 503.85-2.58 503.25-3.93 503.25-5.4L503.25-5.4 503.25-37.5 507.75-37.5 507.75-8Q507.75-5.9 508.03-4.85 508.3-3.8 509.14-3.45 509.98-3.1 511.7-3.1L511.7-3.1 511.05 0.5ZM522.85 0.5L521.4 0.5Q519.02 0.5 517.64-0.36 516.25-1.23 515.65-2.58 515.05-3.93 515.05-5.4L515.05-5.4 515.05-37.5 519.55-37.5 519.55-8Q519.55-5.9 519.82-4.85 520.1-3.8 520.94-3.45 521.77-3.1 523.5-3.1L523.5-3.1 522.85 0.5ZM538.39 0.5L538.39 0.5Q534.07 0.5 531.12-1.28 528.17-3.05 526.66-5.99 525.14-8.93 525.14-12.45L525.14-12.45Q525.14-15.88 526.56-18.73 527.97-21.58 530.66-23.29 533.35-25 537.14-25L537.14-25Q540.2-25 542.58-23.79 544.97-22.58 546.33-20.26 547.7-17.95 547.7-14.65L547.7-14.65Q547.7-14.13 547.66-13.51 547.62-12.9 547.5-12.25L547.5-12.25 529.75-12.25Q530.07-8.85 531.37-6.95 532.67-5.05 534.64-4.28 536.62-3.5 538.95-3.5L538.95-3.5Q540.64-3.5 542.5-3.85 544.35-4.2 546-4.95L546-4.95 546.6-1.4Q545.17-0.78 543.12-0.14 541.07 0.5 538.39 0.5ZM530.14-15.35L530.14-15.35 543.05-15.35Q543.05-17.07 542.39-18.35 541.75-19.63 540.42-20.31 539.1-21 537.05-21L537.05-21Q534.05-21 532.43-19.51 530.82-18.03 530.14-15.35ZM557.94 0.5L557.94 0.5Q555.67 0.5 553.97-0.43 552.27-1.35 551.33-2.95 550.39-4.55 550.39-6.6L550.39-6.6Q550.39-8.68 551.3-10.16 552.22-11.65 553.75-12.64 555.29-13.63 557.19-14.21 559.09-14.8 561.13-15.06 563.17-15.33 565.04-15.35L565.04-15.35Q565.04-18.85 563.67-19.93 562.29-21 559.69-21L559.69-21Q558.32-21 556.75-20.58 555.19-20.15 553.24-18.8L553.24-18.8 552.59-22.45Q554.07-23.58 556.27-24.29 558.47-25 560.89-25L560.89-25Q563.99-25 565.89-23.91 567.79-22.83 568.67-20.25 569.54-17.68 569.54-13.25L569.54-13.25 569.54-8.25Q569.54-6.5 569.71-5.36 569.87-4.23 570.46-3.66 571.04-3.1 572.34-3.1L572.34-3.1 572.79-3.1 572.09 0.5 571.74 0.5Q569.57 0.5 568.38 0.08 567.19-0.35 566.57-1.15 565.94-1.95 565.44-3.1L565.44-3.1Q564.07-1.5 562.19-0.5 560.32 0.5 557.94 0.5ZM558.79-3.1L558.79-3.1Q560.59-3.1 562.28-4 563.97-4.9 565.04-6.4L565.04-6.4 565.04-12.25Q561.47-12.13 559.25-11.55 557.04-10.98 556.02-9.83 554.99-8.68 554.99-6.85L554.99-6.85Q554.99-4.88 556.05-3.99 557.12-3.1 558.79-3.1ZM586.14 12.5L586.14 12.5Q582.79 12.5 580.15 11.68 577.51 10.85 576 9.22 574.49 7.6 574.49 5.2L574.49 5.2Q574.49 3.2 575.63 1.76 576.76 0.33 578.74-0.55L578.74-0.55Q577.56-1.13 576.95-1.91 576.34-2.7 576.34-3.65L576.34-3.65Q576.34-4.78 577.03-5.69 577.71-6.6 579.24-7.2L579.24-7.2Q577.19-8.47 576.09-10.64 574.99-12.8 574.99-15.45L574.99-15.45Q574.99-18.13 576.19-20.29 577.39-22.45 579.65-23.73 581.91-25 585.09-25L585.09-25Q586.79-25 588.3-24.5 589.81-24 591.09-23.1L591.09-23.1Q592.21-23.75 593.75-24.18 595.29-24.6 597.19-24.6L597.19-24.6Q597.31-24.6 597.4-24.6 597.49-24.6 597.59-24.6L597.59-24.6 597.04-21.6Q596.74-21.6 596.46-21.6 596.19-21.6 595.89-21.6L595.89-21.6Q595.64-21.6 594.74-21.53 593.84-21.45 593.09-21.25L593.09-21.25Q594.11-20.05 594.68-18.56 595.24-17.07 595.24-15.45L595.24-15.45Q595.24-12.65 594.03-10.44 592.81-8.22 590.54-6.94 588.26-5.65 585.09-5.65L585.09-5.65Q584.19-5.65 583.36-5.76 582.54-5.88 581.79-6.1L581.79-6.1Q580.64-5.73 580.64-4.8L580.64-4.8Q580.64-4.25 581.29-3.84 581.94-3.43 583.39-3.2L583.39-3.2 589.94-2.15Q593.91-1.53 596.08 0.15 598.24 1.83 598.24 4.9L598.24 4.9Q598.24 7.45 596.75 9.14 595.26 10.83 592.54 11.66 589.81 12.5 586.14 12.5ZM586.54 8.5L586.54 8.5Q589.99 8.5 591.84 7.61 593.69 6.73 593.69 5L593.69 5Q593.69 3.65 592.53 2.88 591.36 2.1 589.19 1.7L589.19 1.7 582.21 0.53Q580.84 1.13 579.81 2.14 578.79 3.15 578.79 4.5L578.79 4.5Q578.79 6.6 580.9 7.55 583.01 8.5 586.54 8.5ZM585.09-9.25L585.09-9.25Q587.94-9.25 589.44-10.96 590.94-12.68 590.94-15.4L590.94-15.4Q590.94-18.03 589.44-19.71 587.94-21.4 585.09-21.4L585.09-21.4Q582.24-21.4 580.76-19.71 579.29-18.03 579.29-15.4L579.29-15.4Q579.29-12.68 580.76-10.96 582.24-9.25 585.09-9.25ZM609.94 0.5L609.94 0.5Q607.06 0.5 605.04-0.66 603.01-1.83 601.95-4.2 600.89-6.58 600.89-10.25L600.89-10.25 600.89-24.5 605.39-24.5 605.39-11.5Q605.39-7.6 606.72-5.55 608.06-3.5 611.09-3.5L611.09-3.5Q613.16-3.5 614.94-4.5 616.71-5.5 617.39-7.7L617.39-7.7 616.74-5.25 616.74-24.5 621.24-24.5 621.24 0 617.24 0 616.34-4.8 617.54-4Q616.31-1.73 614.55-0.61 612.79 0.5 609.94 0.5ZM639.08 0.5L639.08 0.5Q634.76 0.5 631.81-1.28 628.86-3.05 627.35-5.99 625.83-8.93 625.83-12.45L625.83-12.45Q625.83-15.88 627.25-18.73 628.66-21.58 631.35-23.29 634.03-25 637.83-25L637.83-25Q640.88-25 643.27-23.79 645.66-22.58 647.02-20.26 648.38-17.95 648.38-14.65L648.38-14.65Q648.38-14.13 648.35-13.51 648.31-12.9 648.18-12.25L648.18-12.25 630.43-12.25Q630.76-8.85 632.06-6.95 633.36-5.05 635.33-4.28 637.31-3.5 639.63-3.5L639.63-3.5Q641.33-3.5 643.18-3.85 645.03-4.2 646.68-4.95L646.68-4.95 647.28-1.4Q645.86-0.78 643.81-0.14 641.76 0.5 639.08 0.5ZM630.83-15.35L630.83-15.35 643.73-15.35Q643.73-17.07 643.08-18.35 642.43-19.63 641.11-20.31 639.78-21 637.73-21L637.73-21Q634.73-21 633.12-19.51 631.51-18.03 630.83-15.35Z" opacity="1" transform="matrix(1,0,0,1,0,0)" fill="#374151" class="undefined-text-1" data-fill-palette-color="secondary" id="text-1"></path></svg></g></svg></g></svg></g></svg></g><g transform="matrix(1,0,0,1,416.96427484858896,52.871830349069704)"><svg viewBox="0 0 244.43135999999998 93.2450333211611" height="93.2450333211611" width="244.43135999999998"><g><svg xmlns="http://www.w3.org/2000/svg" xmlns:xlink="http://www.w3.org/1999/xlink" version="1.1" x="0" y="0" viewBox="4.5626912117004395 15.55156421661377 82.62727355957031 31.520435333251953" enable-background="new 0 0 90 60" xml:space="preserve" height="93.2450333211611" width="244.43135999999998" class="icon-icon-0" data-fill-palette-color="accent" id="icon-0"><path fill="#374151" d="M20.876 35.429c-3.216 0-5.823 2.605-5.823 5.822 0 3.215 2.607 5.821 5.823 5.821s5.824-2.606 5.824-5.821C26.7 38.034 24.092 35.429 20.876 35.429zM20.876 44.288c-1.678 0-3.039-1.361-3.039-3.038 0-1.679 1.36-3.039 3.039-3.039 1.678 0 3.038 1.358 3.038 3.039C23.914 42.927 22.555 44.288 20.876 44.288z" data-fill-palette-color="accent"></path><path fill="#374151" d="M70.875 35.429c-3.215 0-5.822 2.605-5.822 5.822 0 3.215 2.607 5.821 5.822 5.821 3.217 0 5.824-2.606 5.824-5.821C76.699 38.034 74.092 35.429 70.875 35.429zM70.875 44.288c-1.678 0-3.039-1.361-3.039-3.038 0-1.679 1.361-3.039 3.039-3.039 1.68 0 3.039 1.358 3.039 3.039C73.914 42.927 72.555 44.288 70.875 44.288z" data-fill-palette-color="accent"></path><path fill="#374151" d="M86.162 32.379c-1-4.37-16.875-7.813-16.875-7.813-18.625-9.004-28.875-8.872-28.875-8.872-12.875-1.324-33.5 7.018-33.5 7.018l-1.5 10.063c-3.25 7.15 3.875 8.475 3.875 8.475h4.594c-0.001-0.042-0.006-0.083-0.006-0.125C13.875 37.19 17.065 34 21 34s7.125 3.19 7.125 7.125c0 0.042-0.005 0.083-0.006 0.125h35.756c0-3.935 3.189-7.125 7.125-7.125s7.125 3.19 7.125 7.125h6.787C89.162 40.853 86.162 32.379 86.162 32.379zM37.958 25.75h-16.5l3.25-6.314c5.125-1.665 13.25-1.387 13.25-1.387V25.75zM45 30.625h-2.875V30H45V30.625zM40.5 25.75v-7.719c12.258 0.781 25.031 7.719 25.031 7.719H40.5z" data-fill-palette-color="accent"></path></svg></g></svg></g></svg></g></svg></g></svg></g></svg></g><defs></defs></svg><rect width="395.52" height="247.2" fill="none" stroke="none" visibility="hidden"></rect></g></svg></g></svg>